# xmcd
#
# Track frame offsets:
#	150
#	11651
#	23948
#	35681
#	48204
#	60388
#	72543
#	86820
#	100002
#	113812
#	126386
#	138164
#	151218
#	162909
#	174064
#	185941
#	196272
#	207186
#	218339
#	233186
#	244926
#	257517
#	269913
#	281624
#	295306
#	309345
#	323450
#
# Disc length: 4469 seconds
#
# Revision: 0
# Processed by: cddbd v1.5.2PL0 Copyright (c) Steve Scherf et al.
# Submitted via: dBpowerAMP V4.0
#
DISCID=8311731b
DTITLE=Muddy Waters - The Muddy Waters Story-The Music Disc 2
DYEAR=1900
DGENRE=
TTITLE0=Little Anna Mae
TTITLE1=Good Lookin' Woman
TTITLE2=Mean Disposition
TTITLE3=She Ain't Nowhere
TTITLE4=My Baby, My Baby
TTITLE5=I Can't Be Satisfied
TTITLE6=I Feel Like Going Home
TTITLE7=Florida Hurricane
TTITLE8=So Nice and Kind
TTITLE9=Train Fare Home Blues
TTITLE10=Kind Hearted Woman
TTITLE11=Down South Blues
TTITLE12=Sittin' Here Drinkin'
TTITLE13=Locked Out Boogie
TTITLE14=You're Gonna Miss Me
TTITLE15=Mean Red Spider
TTITLE16=Standin' Here Tremblin'
TTITLE17=Muddy Jumps Ome
TTITLE18=Streamline Woman
TTITLE19=Hard Days
TTITLE20=Little Geneva
TTITLE21=Canary Bird
TTITLE22=Burying Ground
TTITLE23=You Gonna Need My Help
TTITLE24=Screamin' and Cryin'
TTITLE25=Where's My Woman Been?
TTITLE26=Last Time I Fool Around With You
EXTD=
EXTT0=
EXTT1=
EXTT2=
EXTT3=
EXTT4=
EXTT5=
EXTT6=
EXTT7=
EXTT8=
EXTT9=
EXTT10=
EXTT11=
EXTT12=
EXTT13=
EXTT14=
EXTT15=
EXTT16=
EXTT17=
EXTT18=
EXTT19=
EXTT20=
EXTT21=
EXTT22=
EXTT23=
EXTT24=
EXTT25=
EXTT26=
PLAYORDER=
